
<svg width="471" height="446" viewBox="0 0 471 446" fill="none" xmlns="http://www.w3.org/2000/svg">
<g filter="url(#filter0_f_352_4845)">
<path d="M377 237.094L350.436 144.644C347.362 133.946 336.198 127.765 325.5 130.839L189.319 169.969C178.621 173.043 172.44 184.207 175.514 194.905L202.078 287.356C205.152 298.054 216.317 304.234 227.015 301.161L363.196 262.031C373.894 258.957 380.074 247.792 377 237.094Z" fill="url(#paint0_linear_352_4845)" fill-opacity="0.5"/>
<path d="M204.626 107.046L104.069 217.038C92.433 229.766 89.6598 246.172 97.8751 253.683L202.45 349.288C210.665 356.799 226.758 352.569 238.395 339.841L338.952 229.85C350.588 217.122 353.361 200.715 345.146 193.204L240.571 97.5991C232.356 90.0885 216.263 94.3182 204.626 107.046Z" fill="url(#paint1_linear_352_4845)" fill-opacity="0.5"/>
</g>
<defs>
<filter id="filter0_f_352_4845" x="0.151123" y="0.881714" width="470.638" height="445.124" filterUnits="userSpaceOnUse" color-interpolation-filters="sRGB">
<feFlood flood-opacity="0" result="BackgroundImageFix"/>
<feBlend mode="normal" in="SourceGraphic" in2="BackgroundImageFix" result="shape"/>
<feGaussianBlur stdDeviation="46.5" result="effect1_foregroundBlur_352_4845"/>
</filter>
<linearGradient id="paint0_linear_352_4845" x1="86.4957" y1="35.3934" x2="348.848" y2="285.08" gradientUnits="userSpaceOnUse">
<stop stop-color="#56A2FC"/>
<stop offset="0.52" stop-color="#2A898F"/>
<stop offset="1" stop-color="#56A2FC"/>
</linearGradient>
<linearGradient id="paint1_linear_352_4845" x1="166.788" y1="360.935" x2="168.258" y2="-120.498" gradientUnits="userSpaceOnUse">
<stop stop-color="#56A2FC"/>
<stop offset="0.52" stop-color="#2A898F"/>
<stop offset="1" stop-color="#56A2FC"/>
</linearGradient>
</defs>
</svg>
