<svg
    width="23"
    height="21"
    viewBox="0 0 23 21"
    fill="none"
    xmlns="http://www.w3.org/2000/svg"
>
    <path
        d="M15.2745 0.78125C19.5645 0.78125 22.2222 3.12733 22.2222 6.91458V14.2675C22.2222 18.044 19.5645 20.3891 15.2745 20.3891H6.93778C2.65778 20.3891 2.41989e-06 18.044 0.00111596 14.2646C0.00111596 13.8509 0.381116 13.5146 0.851116 13.5146C1.32 13.5146 1.70112 13.8509 1.70112 14.2646C1.70112 17.2391 3.55778 18.8862 6.94889 18.8862H15.2745C18.6556 18.8862 20.5222 17.2479 20.5222 14.2646V6.91164C20.5222 3.92831 18.6667 2.28125 15.2745 2.28125H6.94778C3.56667 2.28125 1.7 3.92831 1.7 6.91164V9.19694C1.7 9.60674 1.32334 9.93811 0.860005 9.93811H0.847783C0.378894 9.93811 -0.00110626 9.60184 2.41984e-06 9.18811V6.91164C2.41984e-06 3.12733 2.67778 0.78125 6.94889 0.78125H15.2745ZM11.105 9.23802C11.565 9.23802 11.9383 9.56743 11.9383 9.97331V14.3066C11.9383 14.7125 11.565 15.0419 11.105 15.0419C10.645 15.0419 10.2717 14.7125 10.2717 14.3066V9.97331C10.2717 9.56743 10.645 9.23802 11.105 9.23802ZM11.1165 6.12841C11.5765 6.12841 11.9498 6.45782 11.9498 6.8637C11.9498 7.26958 11.5765 7.599 11.1165 7.599H11.1053C10.6453 7.599 10.2776 7.26958 10.2776 6.8637C10.2776 6.45782 10.6565 6.12841 11.1165 6.12841Z"
        fill="#6C7894"
    />
</svg>
 