
<svg width="45" height="45" viewBox="0 0 45 45" fill="none" xmlns="http://www.w3.org/2000/svg">
<circle cx="22.4646" cy="31.4902" r="1.74319" transform="rotate(-180 22.4646 31.4902)" fill="#FDC609"/>
<circle cx="31.4824" cy="22.4779" r="1.74319" transform="rotate(90 31.4824 22.4779)" fill="#FDC609"/>
<circle cx="31.4824" cy="22.4779" r="1.74319" transform="rotate(90 31.4824 22.4779)" fill="#FDC609"/>
<circle cx="13.4553" cy="22.4803" r="1.74319" transform="rotate(-90 13.4553 22.4803)" fill="#FDC609"/>
<circle cx="26.9706" cy="14.6729" r="1.74319" transform="rotate(30 26.9706 14.6729)" fill="#FDC609"/>
<circle cx="17.9559" cy="30.2853" r="1.74319" transform="rotate(-150 17.9559 30.2853)" fill="#FDC609"/>
<circle cx="30.2726" cy="26.9849" r="1.74319" transform="rotate(120 30.2726 26.9849)" fill="#FDC609"/>
<circle cx="14.6649" cy="17.9734" r="1.74319" transform="rotate(-60 14.6649 17.9734)" fill="#FDC609"/>
<circle cx="30.2777" cy="17.9706" r="1.74319" transform="rotate(60 30.2777 17.9706)" fill="#FDC609"/>
<circle cx="14.6598" cy="26.9877" r="1.74319" transform="rotate(-120 14.6598 26.9877)" fill="#FDC609"/>
<circle cx="26.9686" cy="30.2842" r="1.74319" transform="rotate(150 26.9686 30.2842)" fill="#FDC609"/>
<circle cx="17.9564" cy="14.6741" r="1.74319" transform="rotate(-30 17.9564 14.6741)" fill="#FDC609"/>
<circle cx="22.5041" cy="8.63677" r="2.25823" fill="#FDC609"/>
<circle cx="22.4957" cy="36.3269" r="2.25823" transform="rotate(-180 22.4957 36.3269)" fill="#FDC609"/>
<circle cx="36.3455" cy="22.4852" r="2.25823" transform="rotate(90 36.3455 22.4852)" fill="#FDC609"/>
<circle cx="8.65398" cy="22.4815" r="2.25823" transform="rotate(-90 8.65398 22.4815)" fill="#FDC609"/>
<circle cx="29.4184" cy="10.4906" r="2.25823" transform="rotate(30 29.4184 10.4906)" fill="#FDC609"/>
<circle cx="15.5814" cy="34.4731" r="2.25823" transform="rotate(-150 15.5814 34.4731)" fill="#FDC609"/>
<circle cx="34.4887" cy="29.4058" r="2.25823" transform="rotate(120 34.4887 29.4058)" fill="#FDC609"/>
<circle cx="10.5108" cy="15.5609" r="2.25823" transform="rotate(-60 10.5108 15.5609)" fill="#FDC609"/>
<circle cx="34.4859" cy="15.5577" r="2.25823" transform="rotate(60 34.4859 15.5577)" fill="#FDC609"/>
<circle cx="10.5153" cy="29.4059" r="2.25823" transform="rotate(-120 10.5153 29.4059)" fill="#FDC609"/>
<circle cx="29.4201" cy="34.4765" r="2.25823" transform="rotate(150 29.4201 34.4765)" fill="#FDC609"/>
<circle cx="15.5797" cy="10.4903" r="2.25823" transform="rotate(-30 15.5797 10.4903)" fill="#FDC609"/>
<circle cx="22.4859" cy="2.77326" r="2.77326" fill="#FDC609"/>
<circle cx="22.4794" cy="42.1918" r="2.77326" transform="rotate(-180 22.4794 42.1918)" fill="#FDC609"/>
<circle cx="42.1918" cy="22.4811" r="2.77326" transform="rotate(90 42.1918 22.4811)" fill="#FDC609"/>
<circle cx="22.4854" cy="13.4669" r="1.74319" fill="#FDC609"/>
<circle cx="13.4676" cy="22.4792" r="1.74319" transform="rotate(-90 13.4676 22.4792)" fill="#FDC609"/>
<circle cx="36.3363" cy="22.488" r="2.25823" transform="rotate(90 36.3363 22.488)" fill="#FDC609"/>
<circle cx="8.6447" cy="22.4843" r="2.25823" transform="rotate(-90 8.6447 22.4843)" fill="#FDC609"/>
<circle cx="2.77326" cy="22.4809" r="2.77326" transform="rotate(-90 2.77326 22.4809)" fill="#FDC609"/>
<circle cx="42.1918" cy="22.4811" r="2.77326" transform="rotate(90 42.1918 22.4811)" fill="#FDC609"/>
<circle cx="2.77326" cy="22.4809" r="2.77326" transform="rotate(-90 2.77326 22.4809)" fill="#FDC609"/>
<circle cx="32.34" cy="5.41688" r="2.77326" transform="rotate(30 32.34 5.41688)" fill="#FDC609"/>
<circle cx="12.6219" cy="39.5515" r="2.77326" transform="rotate(-150 12.6219 39.5515)" fill="#FDC609"/>
<circle cx="39.5483" cy="32.3384" r="2.77326" transform="rotate(120 39.5483 32.3384)" fill="#FDC609"/>
<circle cx="5.4153" cy="12.6266" r="2.77326" transform="rotate(-60 5.4153 12.6266)" fill="#FDC609"/>
<circle cx="39.553" cy="12.6292" r="2.77326" transform="rotate(60 39.553 12.6292)" fill="#FDC609"/>
<circle cx="5.41352" cy="32.3359" r="2.77326" transform="rotate(-120 5.41352 32.3359)" fill="#FDC609"/>
<circle cx="32.3313" cy="39.5532" r="2.77326" transform="rotate(150 32.3313 39.5532)" fill="#FDC609"/>
<circle cx="12.6323" cy="5.41206" r="2.77326" transform="rotate(-30 12.6323 5.41206)" fill="#FDC609"/>
</svg>
