<svg
    width="22"
    height="20"
    viewBox="0 0 22 20"
    fill="none"
    xmlns="http://www.w3.org/2000/svg"
>
    <path
        d="M2.77618 5.05184C3.12672 4.95652 3.51401 5.06586 3.73501 5.33399C3.98056 5.6319 3.95151 6.04176 3.6658 6.31035L2.88319 6.82186C2.51237 7.0937 2.29664 7.49623 2.29382 7.92161V15.7221C2.3044 16.9928 3.47204 18.0193 4.91218 18.0239H9.35662V18.041C9.83687 18.041 10.2262 18.3845 10.2262 18.8082C10.2262 19.232 9.83687 19.5755 9.35662 19.5755H4.91218C2.50781 19.5708 0.560001 17.8521 0.554688 15.7306V7.92161C0.57006 7.01923 1.0501 6.17209 1.85904 5.61982L2.66097 5.09126L2.77618 5.05184ZM8.46773 0.90541C9.93484 -0.135137 12.0248 -0.135137 13.4919 0.90541L20.1682 5.60277C20.9593 6.16419 21.4238 7.00881 21.4339 7.90456L21.4243 15.7221C21.4243 17.8456 19.4733 19.567 17.0668 19.567H15.1344C13.9696 19.567 13.0238 18.7363 13.0185 17.7085V14.1791L13.0094 14.0902C12.962 13.8595 12.7332 13.6846 12.4581 13.6846H9.55952C9.40921 13.6846 9.26519 13.7379 9.15981 13.8324C9.05444 13.927 8.99654 14.055 8.99913 14.1876V15.5346C8.99913 15.9583 8.60981 16.3018 8.12957 16.3018C7.64932 16.3018 7.26 15.9583 7.26 15.5346V14.1876C7.26 13.6472 7.50329 13.129 7.93634 12.7469C8.3694 12.3647 8.95675 12.1501 9.56918 12.1501H12.4677C13.7393 12.1548 14.7673 13.0656 14.7672 14.1876V17.7085C14.7672 17.8874 14.9316 18.0324 15.1344 18.0324H17.1151C18.5558 18.0324 19.7238 17.0019 19.7238 15.7306V7.92161C19.7167 7.489 19.4897 7.0821 19.1054 6.81334L12.4291 2.11598C11.5872 1.50442 10.3724 1.50442 9.53053 2.11598L7.38561 3.53116C6.98807 3.78305 6.43437 3.7029 6.14889 3.35213C5.86341 3.00136 5.95425 2.5128 6.35179 2.26091L8.46773 0.90541Z"
        fill="#555555"
    />
</svg>
 