<svg width="37" height="70" viewBox="0 0 37 70" fill="none" xmlns="http://www.w3.org/2000/svg">
<path d="M1.00003 69C12.8334 62.6667 32 43.1 14 15.5" stroke="black" stroke-width="2" stroke-linecap="round"/>
<path d="M12.535 55C14.2017 52.5 15.835 46.4 9.035 42C7.53507 45.3333 6.13517 52.6 12.535 55Z" stroke="black" stroke-width="2" stroke-linecap="round"/>
<path d="M17.2821 59.6564C19.3686 61.8184 24.9793 64.7164 30.7296 59.0126C27.7934 56.8356 20.9932 53.9165 17.2821 59.6564Z" stroke="black" stroke-width="2" stroke-linecap="round"/>
<path d="M22.9184 49.0763C25.5763 50.4775 31.8117 51.4761 35.4905 44.2603C32.0208 43.1105 24.6488 42.4639 22.9184 49.0763Z" stroke="black" stroke-width="2" stroke-linecap="round"/>
<path d="M25.6553 36.5381C28.6568 36.4015 34.5401 34.1069 34.061 26.0217C30.4865 26.786 23.8011 29.9594 25.6553 36.5381Z" stroke="black" stroke-width="2" stroke-linecap="round"/>
<path d="M21.6768 22.4953C24.4378 21.3103 29.1359 17.0906 25.8399 9.69225C22.7636 11.6666 17.6243 16.9912 21.6768 22.4953Z" stroke="black" stroke-width="2" stroke-linecap="round"/>
<path d="M18.8043 40.4588C18.7211 37.4554 16.5314 31.5323 8.43899 31.8676C9.13965 35.455 12.1936 42.1958 18.8043 40.4588Z" stroke="black" stroke-width="2" stroke-linecap="round"/>
<path d="M15.2607 25.6763C14.2019 23.1475 10.3899 18.8266 3.61274 21.7739C5.38916 24.5967 10.2057 29.3292 15.2607 25.6763Z" stroke="black" stroke-width="2" stroke-linecap="round"/>
<path d="M14.4706 14.5129C14.606 10.833 12.3958 3.41599 2.47212 3.18699C3.04573 7.62988 6.24848 16.1151 14.4706 14.5129Z" stroke="black" stroke-width="2" stroke-linecap="round"/>
</svg>
