
<svg width="232" height="39" viewBox="0 0 232 39" fill="none" xmlns="http://www.w3.org/2000/svg">
<path d="M197.182 17.711C197.182 16.4676 197.415 15.3082 197.881 14.2329C198.348 13.1239 198.965 12.1494 199.731 11.3093C200.498 10.4691 201.381 9.81385 202.38 9.34339C203.38 8.83931 204.38 8.58728 205.38 8.58728H211.078C212.378 8.58728 213.528 8.87292 214.528 9.4442C215.561 9.98188 216.411 10.6876 217.077 11.5613C217.777 12.4014 218.31 13.3592 218.677 14.4345C219.077 15.4763 219.277 16.5012 219.277 17.5093V24.0119H203.08V25.3729C203.08 26.5826 203.414 27.4395 204.08 27.9436C204.747 28.4477 205.63 28.6997 206.729 28.6997H218.377L231.474 34.3453H205.43C204.297 34.3453 203.23 34.1269 202.23 33.69C201.231 33.2196 200.348 32.5979 199.581 31.825C198.848 31.0521 198.265 30.1279 197.831 29.0526C197.398 27.9772 197.182 26.8011 197.182 25.5241V17.711ZM203.13 19.2232H213.478V18.9711C213.478 17.6606 213.145 16.5852 212.478 15.7451C211.812 14.8714 210.912 14.4345 209.779 14.4345H206.679C206.146 14.4345 205.663 14.5689 205.23 14.8378C204.797 15.073 204.43 15.3922 204.13 15.7955C203.83 16.1988 203.58 16.686 203.38 17.2573C203.214 17.795 203.13 18.3663 203.13 18.9711V19.2232Z" fill="#56A2FC"/>
<path d="M182.248 14.3563C181.373 14.3563 180.666 14.4743 180.128 14.7105C179.59 14.9129 179.169 15.1997 178.866 15.5708C178.597 15.9419 178.412 16.3805 178.311 16.8865C178.21 17.3926 178.16 17.9492 178.16 18.5565V34.3453H172.255V18.6071C172.255 17.9998 172.204 17.4432 172.103 16.9371C172.002 16.3973 171.801 15.9419 171.498 15.5708C171.229 15.1997 170.825 14.9129 170.287 14.7105C169.748 14.4743 169.025 14.3563 168.116 14.3563H166.905C166.03 14.3563 165.307 14.4743 164.735 14.7105C164.197 14.9129 163.776 15.1997 163.473 15.5708C163.17 15.9419 162.952 16.3973 162.817 16.9371C162.716 17.4432 162.666 17.9998 162.666 18.6071V34.3453H156.761V8.58728H162.666V9.34636C163.978 8.84031 165.374 8.58728 166.855 8.58728H169.075C170.421 8.58728 171.616 8.7897 172.659 9.19454C173.702 9.59938 174.593 10.156 175.333 10.8645C176.141 10.156 177.083 9.59938 178.16 9.19454C179.236 8.7897 180.448 8.58728 181.794 8.58728H184.418C185.898 8.58728 187.211 8.84031 188.355 9.34636C189.498 9.85241 190.441 10.5271 191.181 11.3706C191.955 12.1802 192.527 13.1249 192.897 14.2045C193.301 15.2503 193.502 16.313 193.502 17.3926V34.3453H187.648V18.6071C187.648 17.9998 187.597 17.4432 187.497 16.9371C187.396 16.3973 187.194 15.9419 186.891 15.5708C186.588 15.1997 186.168 14.9129 185.629 14.7105C185.091 14.4743 184.384 14.3563 183.509 14.3563H182.248Z" fill="#56A2FC"/>
<path d="M140.98 14.3563C140.135 14.3563 139.452 14.4743 138.931 14.7105C138.411 14.9129 138.004 15.1997 137.712 15.5708C137.452 15.9419 137.273 16.3805 137.175 16.8865C137.077 17.3926 137.029 17.9492 137.029 18.5565V34.3453H131.321V18.6071C131.321 17.9998 131.272 17.4432 131.174 16.9371C131.077 16.3973 130.882 15.9419 130.589 15.5708C130.329 15.1997 129.938 14.9129 129.418 14.7105C128.898 14.4743 128.198 14.3563 127.32 14.3563H126.149C125.304 14.3563 124.604 14.4743 124.051 14.7105C123.531 14.9129 123.124 15.1997 122.832 15.5708C122.539 15.9419 122.328 16.3973 122.197 16.9371C122.1 17.4432 122.051 17.9998 122.051 18.6071V34.3453H116.343V8.58728H122.051V9.34636C123.32 8.84031 124.669 8.58728 126.1 8.58728H128.247C129.548 8.58728 130.703 8.7897 131.711 9.19454C132.719 9.59938 133.581 10.156 134.297 10.8645C135.077 10.156 135.988 9.59938 137.029 9.19454C138.069 8.7897 139.24 8.58728 140.541 8.58728H143.078C144.509 8.58728 145.778 8.84031 146.884 9.34636C147.99 9.85241 148.9 10.5271 149.616 11.3706C150.364 12.1802 150.917 13.1249 151.275 14.2045C151.665 15.2503 151.86 16.313 151.86 17.3926V34.3453H146.201V18.6071C146.201 17.9998 146.152 17.4432 146.054 16.9371C145.957 16.3973 145.762 15.9419 145.469 15.5708C145.176 15.1997 144.77 14.9129 144.249 14.7105C143.729 14.4743 143.046 14.3563 142.2 14.3563H140.98Z" fill="#56A2FC"/>
<path d="M64.2564 28.5257C65.0669 28.5257 65.7592 28.3402 66.3333 27.9691C66.9074 27.5642 67.2789 27.0244 67.4478 26.3497H73.476C73.1721 28.7787 72.2265 30.7186 70.6392 32.1693C69.0519 33.62 66.9243 34.3453 64.2564 34.3453H62.1794C60.7272 34.3453 59.4101 34.126 58.2281 33.6875C57.0461 33.2489 56.0498 32.6247 55.2393 31.8151C54.4288 30.9716 53.7871 29.9764 53.3143 28.8294C52.8753 27.6486 52.6558 26.3497 52.6558 24.9328V17.9998C52.6558 16.5492 52.8753 15.2503 53.3143 14.1032C53.7871 12.9562 54.4288 11.9778 55.2393 11.1681C56.0498 10.3585 57.0461 9.73433 58.2281 9.29575C59.4101 8.82344 60.7272 8.58728 62.1794 8.58728H64.2564C66.9919 8.58728 69.1532 9.31262 70.7405 10.7633C72.3278 12.214 73.2396 14.2045 73.476 16.7347H67.4984C67.2958 15.9925 66.9243 15.419 66.384 15.0141C65.8436 14.6093 65.1344 14.4069 64.2564 14.4069H62.1794C61.0987 14.4069 60.2037 14.7611 59.4945 15.4696C58.8191 16.1443 58.4814 17.0383 58.4814 18.1517V24.7303C58.4814 25.8436 58.8191 26.7545 59.4945 27.463C60.2037 28.1715 61.0987 28.5257 62.1794 28.5257H64.2564Z" fill="#56A2FC"/>
<path d="M28.1628 17.711C28.1628 16.4676 28.3827 15.3082 28.8223 14.2329C29.262 13.1239 29.8429 12.1494 30.5652 11.3093C31.2875 10.4691 32.1196 9.81385 33.0617 9.34339C34.0038 8.83931 34.9459 8.58728 35.888 8.58728H41.2579C42.4827 8.58728 43.5661 8.87292 44.5082 9.4442C45.4817 9.98188 46.2824 10.6876 46.9105 11.5613C47.57 12.4014 48.0724 13.3592 48.4179 14.4345C48.7947 15.4763 48.9831 16.5012 48.9831 17.5093V24.0119H33.7212V25.3729C33.7212 26.5826 34.0352 27.4395 34.6633 27.9436C35.2914 28.4477 36.1235 28.6997 37.1598 28.6997H48.1352V34.3453H35.9351C34.8674 34.3453 33.8625 34.1269 32.9204 33.69C31.9783 33.2196 31.1461 32.5979 30.4239 31.825C29.733 31.0521 29.1834 30.1279 28.7752 29.0526C28.367 27.9772 28.1628 26.8011 28.1628 25.5241V17.711ZM33.7683 19.2232H43.519V18.9711C43.519 17.6606 43.2049 16.5852 42.5769 15.7451C41.9488 14.8714 41.1009 14.4345 40.0332 14.4345H37.1127C36.6103 14.4345 36.1549 14.5689 35.7467 14.8378C35.3385 15.073 34.993 15.3922 34.7104 15.7955C34.4278 16.1988 34.1922 16.686 34.0038 17.2573C33.8468 17.795 33.7683 18.3663 33.7683 18.9711V19.2232Z" fill="#56A2FC"/>
<path d="M6.36154 20.4753V34.344H0V0H14.6265C15.9289 0 17.1478 0.25216 18.2832 0.75648C19.4186 1.22718 20.387 1.88279 21.1884 2.72332C22.0233 3.56385 22.6745 4.55567 23.142 5.69879C23.6429 6.84191 23.8933 8.05228 23.8933 9.32988V10.8428C23.8933 12.1204 23.6429 13.3308 23.142 14.4739C22.6745 15.5834 22.0233 16.5752 21.1884 17.4494C20.387 18.2899 19.4186 18.9455 18.2832 19.4162C17.1478 19.8869 15.9289 20.1223 14.6265 20.1223H12.9234L24.4944 34.344H17.2313L6.36154 20.4753ZM6.36154 6.00138V14.1209H13.6247C15.0607 14.1209 16.1126 13.7679 16.7804 13.0618C17.4483 12.3558 17.7823 11.364 17.7823 10.0864C17.7823 8.876 17.4483 7.90098 16.7804 7.16131C16.1126 6.38803 15.0607 6.00138 13.6247 6.00138H6.36154Z" fill="#56A2FC"/>
<circle cx="95.2497" cy="27.9041" r="1.34477" transform="rotate(-180 95.2497 27.9041)" fill="#FDC609"/>
<circle cx="102.205" cy="20.9518" r="1.34477" transform="rotate(90 102.205 20.9518)" fill="#FDC609"/>
<circle cx="102.205" cy="20.9518" r="1.34477" transform="rotate(90 102.205 20.9518)" fill="#FDC609"/>
<circle cx="88.2984" cy="20.9528" r="1.34477" transform="rotate(-90 88.2984 20.9528)" fill="#FDC609"/>
<circle cx="98.7246" cy="14.932" r="1.34477" transform="rotate(30 98.7246 14.932)" fill="#FDC609"/>
<circle cx="91.7705" cy="26.9748" r="1.34477" transform="rotate(-150 91.7705 26.9748)" fill="#FDC609"/>
<circle cx="101.273" cy="24.4279" r="1.34477" transform="rotate(120 101.273 24.4279)" fill="#FDC609"/>
<circle cx="89.232" cy="17.4768" r="1.34477" transform="rotate(-60 89.232 17.4768)" fill="#FDC609"/>
<circle cx="101.275" cy="17.474" r="1.34477" transform="rotate(60 101.275 17.474)" fill="#FDC609"/>
<circle cx="89.2283" cy="24.4307" r="1.34477" transform="rotate(-120 89.2283 24.4307)" fill="#FDC609"/>
<circle cx="98.7243" cy="26.9743" r="1.34477" transform="rotate(150 98.7243 26.9743)" fill="#FDC609"/>
<circle cx="91.7708" cy="14.9303" r="1.34477" transform="rotate(-30 91.7708 14.9303)" fill="#FDC609"/>
<circle cx="95.2755" cy="10.266" r="1.74209" fill="#FDC609"/>
<circle cx="95.2691" cy="31.6291" r="1.74209" transform="rotate(-180 95.2691 31.6291)" fill="#FDC609"/>
<circle cx="105.954" cy="20.9497" r="1.74209" transform="rotate(90 105.954 20.9497)" fill="#FDC609"/>
<circle cx="84.5907" cy="20.9476" r="1.74209" transform="rotate(-90 84.5907 20.9476)" fill="#FDC609"/>
<circle cx="100.611" cy="11.6972" r="1.74209" transform="rotate(30 100.611 11.6972)" fill="#FDC609"/>
<circle cx="89.9346" cy="30.2" r="1.74209" transform="rotate(-150 89.9346 30.2)" fill="#FDC609"/>
<circle cx="104.522" cy="26.2895" r="1.74209" transform="rotate(120 104.522 26.2895)" fill="#FDC609"/>
<circle cx="86.024" cy="15.6078" r="1.74209" transform="rotate(-60 86.024 15.6078)" fill="#FDC609"/>
<circle cx="104.519" cy="15.6058" r="1.74209" transform="rotate(60 104.519 15.6058)" fill="#FDC609"/>
<circle cx="86.0261" cy="26.2893" r="1.74209" transform="rotate(-120 86.0261 26.2893)" fill="#FDC609"/>
<circle cx="100.612" cy="30.2" r="1.74209" transform="rotate(150 100.612 30.2)" fill="#FDC609"/>
<circle cx="89.9337" cy="11.6972" r="1.74209" transform="rotate(-30 89.9337 11.6972)" fill="#FDC609"/>
<circle cx="95.2627" cy="5.74512" r="2.13941" fill="#FDC609"/>
<circle cx="95.2573" cy="36.1549" r="2.13941" transform="rotate(-180 95.2573 36.1549)" fill="#FDC609"/>
<circle cx="110.466" cy="20.9506" r="2.13941" transform="rotate(90 110.466 20.9506)" fill="#FDC609"/>
<circle cx="95.2654" cy="13.9963" r="1.34477" fill="#FDC609"/>
<circle cx="88.3077" cy="20.9486" r="1.34477" transform="rotate(-90 88.3077 20.9486)" fill="#FDC609"/>
<circle cx="105.946" cy="20.9503" r="1.74209" transform="rotate(90 105.946 20.9503)" fill="#FDC609"/>
<circle cx="84.5824" cy="20.9481" r="1.74209" transform="rotate(-90 84.5824 20.9481)" fill="#FDC609"/>
<circle cx="80.0552" cy="20.9495" r="2.13941" transform="rotate(-90 80.0552 20.9495)" fill="#FDC609"/>
<circle cx="110.466" cy="20.9506" r="2.13941" transform="rotate(90 110.466 20.9506)" fill="#FDC609"/>
<circle cx="80.0552" cy="20.9495" r="2.13941" transform="rotate(-90 80.0552 20.9495)" fill="#FDC609"/>
<circle cx="102.866" cy="7.78223" r="2.13941" transform="rotate(30 102.866 7.78223)" fill="#FDC609"/>
<circle cx="87.6542" cy="34.1199" r="2.13941" transform="rotate(-150 87.6542 34.1199)" fill="#FDC609"/>
<circle cx="108.427" cy="28.5529" r="2.13941" transform="rotate(120 108.427 28.5529)" fill="#FDC609"/>
<circle cx="82.0934" cy="13.3472" r="2.13941" transform="rotate(-60 82.0934 13.3472)" fill="#FDC609"/>
<circle cx="108.43" cy="13.3479" r="2.13941" transform="rotate(60 108.43 13.3479)" fill="#FDC609"/>
<circle cx="82.0917" cy="28.5521" r="2.13941" transform="rotate(-120 82.0917 28.5521)" fill="#FDC609"/>
<circle cx="102.859" cy="34.1205" r="2.13941" transform="rotate(150 102.859 34.1205)" fill="#FDC609"/>
<circle cx="87.66" cy="7.78174" r="2.13941" transform="rotate(-30 87.66 7.78174)" fill="#FDC609"/>
</svg>
