<svg width="1068" height="147" viewBox="0 0 1068 147" fill="none" xmlns="http://www.w3.org/2000/svg">
<path d="M311.709 111.115L333.471 0L368.958 80.3241L405.718 0L425.27 111.115H409.267L399.29 48.73L368.69 115.868L338.961 48.663L327.846 111.115H311.709Z" fill="#5A6C84"/>
<path d="M492.429 45.9186H507.561V111.115H492.429V104.287C486.224 110.089 479.551 112.989 472.409 112.989C463.391 112.989 455.937 109.732 450.045 103.216C444.197 96.5674 441.273 88.2673 441.273 78.316C441.273 68.5432 444.197 60.3993 450.045 53.8841C455.892 47.3689 463.213 44.1113 472.007 44.1113C479.595 44.1113 486.403 47.2351 492.429 53.4825V45.9186ZM456.673 78.316C456.673 84.5634 458.347 89.6506 461.695 93.5776C465.132 97.5492 469.462 99.535 474.685 99.535C480.265 99.535 484.773 97.6161 488.211 93.7784C491.648 89.8068 493.366 84.7643 493.366 78.6507C493.366 72.5371 491.648 67.4946 488.211 63.523C484.773 59.6407 480.31 57.6995 474.819 57.6995C469.641 57.6995 465.311 59.663 461.829 63.5899C458.392 67.5615 456.673 72.4702 456.673 78.316Z" fill="#5A6C84"/>
<path d="M564.476 57.0301L552.022 63.6569C550.058 59.6407 547.625 57.6326 544.723 57.6326C543.339 57.6326 542.156 58.1011 541.174 59.0382C540.192 59.9307 539.701 61.091 539.701 62.5189C539.701 65.0179 542.603 67.4946 548.406 69.9489C556.396 73.385 561.775 76.5534 564.543 79.4539C567.31 82.3545 568.694 86.2592 568.694 91.1679C568.694 97.4599 566.373 102.726 561.731 106.965C557.222 110.981 551.776 112.989 545.393 112.989C534.456 112.989 526.711 107.657 522.158 96.9914L535.014 91.034C536.8 94.1577 538.161 96.1435 539.099 96.9914C540.929 98.6871 543.116 99.535 545.661 99.535C550.749 99.535 553.294 97.2145 553.294 92.5735C553.294 89.8961 551.33 87.3971 547.402 85.0766C545.884 84.318 544.366 83.5817 542.848 82.8677C541.331 82.1537 539.791 81.4174 538.228 80.6588C533.854 78.5168 530.774 76.3748 528.988 74.2329C526.711 71.5108 525.573 68.0078 525.573 63.7238C525.573 58.0565 527.515 53.3709 531.399 49.6671C535.371 45.9632 540.192 44.1113 545.861 44.1113C554.209 44.1113 560.414 48.4176 564.476 57.0301Z" fill="#5A6C84"/>
<path d="M597.821 59.9753V111.115H582.755V59.9753H576.327V45.9186H582.755V22.0222H597.821V45.9186H609.539V59.9753H597.821Z" fill="#5A6C84"/>
<path d="M680.38 82.0645H633.643C634.045 87.4194 635.786 91.6811 638.866 94.8494C641.946 97.9731 645.897 99.535 650.718 99.535C654.467 99.535 657.57 98.6425 660.025 96.8575C662.435 95.0725 665.181 91.7703 668.261 86.9509L680.983 94.0462C679.019 97.393 676.943 100.271 674.756 102.681C672.568 105.046 670.225 107.01 667.725 108.571C665.225 110.089 662.525 111.204 659.623 111.918C656.722 112.632 653.575 112.989 650.182 112.989C640.451 112.989 632.639 109.866 626.747 103.618C620.854 97.326 617.908 88.9813 617.908 78.5838C617.908 68.2755 620.765 59.9307 626.479 53.5494C632.237 47.2574 639.871 44.1113 649.379 44.1113C658.976 44.1113 666.565 47.1681 672.144 53.2817C677.68 59.3506 680.447 67.7623 680.447 78.5168L680.38 82.0645ZM664.913 69.7481C662.815 61.7157 657.748 57.6995 649.713 57.6995C647.883 57.6995 646.165 57.9896 644.558 58.5697C642.951 59.1052 641.478 59.9084 640.138 60.9794C638.844 62.0058 637.728 63.2552 636.79 64.7279C635.853 66.2005 635.139 67.8739 634.648 69.7481H664.913Z" fill="#5A6C84"/>
<path d="M696.919 45.9186H711.984V51.7421C714.752 48.8415 717.207 46.8557 719.35 45.7847C721.537 44.6691 724.126 44.1113 727.117 44.1113C731.09 44.1113 735.241 45.4054 739.571 47.9937L732.674 61.7826C729.818 59.7299 727.028 58.7035 724.305 58.7035C716.091 58.7035 711.984 64.9063 711.984 77.312V111.115H696.919V45.9186Z" fill="#5A6C84"/>
<path d="M765.417 146.592H750.351V45.9186H765.417V53.0139C771.354 47.0789 778.094 44.1113 785.638 44.1113C794.611 44.1113 801.998 47.4135 807.801 54.018C813.694 60.5778 816.64 68.8556 816.64 78.8515C816.64 88.6243 813.716 96.7682 807.868 103.283C802.065 109.754 794.745 112.989 785.906 112.989C778.273 112.989 771.443 109.932 765.417 103.819V146.592ZM801.239 78.9184C801.239 72.671 799.543 67.5838 796.151 63.6569C792.713 59.6853 788.383 57.6995 783.161 57.6995C777.626 57.6995 773.139 59.6183 769.702 63.4561C766.265 67.2938 764.546 72.3363 764.546 78.5838C764.546 84.6973 766.265 89.7399 769.702 93.7115C773.095 97.5938 777.559 99.535 783.094 99.535C788.317 99.535 792.624 97.5715 796.017 93.6445C799.499 89.7176 801.239 84.8089 801.239 78.9184Z" fill="#5A6C84"/>
<path d="M847.641 45.9186V111.115H832.576V45.9186H847.641ZM830.299 18.8092C830.299 16.1764 831.259 13.9005 833.178 11.9817C835.098 10.0628 837.397 9.1034 840.075 9.1034C842.798 9.1034 845.119 10.0628 847.039 11.9817C848.958 13.8559 849.918 16.1541 849.918 18.8762C849.918 21.5983 848.958 23.9187 847.039 25.8376C845.164 27.7564 842.865 28.7159 840.142 28.7159C837.419 28.7159 835.098 27.7564 833.178 25.8376C831.259 23.9187 830.299 21.576 830.299 18.8092Z" fill="#5A6C84"/>
<path d="M926.116 82.0645H879.379C879.781 87.4194 881.522 91.6811 884.602 94.8494C887.682 97.9731 891.633 99.535 896.454 99.535C900.203 99.535 903.306 98.6425 905.761 96.8575C908.171 95.0725 910.917 91.7703 913.997 86.9509L926.719 94.0462C924.755 97.393 922.679 100.271 920.492 102.681C918.304 105.046 915.961 107.01 913.461 108.571C910.961 110.089 908.261 111.204 905.359 111.918C902.458 112.632 899.311 112.989 895.918 112.989C886.187 112.989 878.375 109.866 872.483 103.618C866.591 97.326 863.644 88.9813 863.644 78.5838C863.644 68.2755 866.501 59.9307 872.215 53.5494C877.973 47.2574 885.607 44.1113 895.115 44.1113C904.712 44.1113 912.301 47.1681 917.88 53.2817C923.416 59.3506 926.183 67.7623 926.183 78.5168L926.116 82.0645ZM910.649 69.7481C908.551 61.7157 903.484 57.6995 895.449 57.6995C893.619 57.6995 891.901 57.9896 890.294 58.5697C888.687 59.1052 887.214 59.9084 885.874 60.9794C884.58 62.0058 883.464 63.2552 882.527 64.7279C881.589 66.2005 880.875 67.8739 880.384 69.7481H910.649Z" fill="#5A6C84"/>
<path d="M993.409 48.73V68.7441C989.972 64.5494 986.892 61.6711 984.169 60.1092C981.491 58.5027 978.343 57.6995 974.728 57.6995C969.059 57.6995 964.349 59.6853 960.6 63.6569C956.85 67.6284 954.975 72.6041 954.975 78.5838C954.975 84.6973 956.783 89.7176 960.399 93.6445C964.059 97.5715 968.724 99.535 974.393 99.535C978.009 99.535 981.2 98.754 983.968 97.1922C986.646 95.675 989.793 92.7297 993.409 88.3565V108.237C987.294 111.405 981.178 112.989 975.063 112.989C964.974 112.989 956.538 109.732 949.752 103.216C942.967 96.6567 939.575 88.5127 939.575 78.7846C939.575 69.0564 943.012 60.8455 949.886 54.1518C956.761 47.4582 965.197 44.1113 975.196 44.1113C981.624 44.1113 987.695 45.6509 993.409 48.73Z" fill="#5A6C84"/>
<path d="M1067.4 82.0645H1020.66C1021.06 87.4194 1022.8 91.6811 1025.88 94.8494C1028.96 97.9731 1032.91 99.535 1037.74 99.535C1041.48 99.535 1044.59 98.6425 1047.04 96.8575C1049.45 95.0725 1052.2 91.7703 1055.28 86.9509L1068 94.0462C1066.04 97.393 1063.96 100.271 1061.77 102.681C1059.59 105.046 1057.24 107.01 1054.74 108.571C1052.24 110.089 1049.54 111.204 1046.64 111.918C1043.74 112.632 1040.59 112.989 1037.2 112.989C1027.47 112.989 1019.66 109.866 1013.76 103.618C1007.87 97.326 1004.93 88.9813 1004.93 78.5838C1004.93 68.2755 1007.78 59.9307 1013.5 53.5494C1019.25 47.2574 1026.89 44.1113 1036.4 44.1113C1045.99 44.1113 1053.58 47.1681 1059.16 53.2817C1064.7 59.3506 1067.46 67.7623 1067.46 78.5168L1067.4 82.0645ZM1051.93 69.7481C1049.83 61.7157 1044.77 57.6995 1036.73 57.6995C1034.9 57.6995 1033.18 57.9896 1031.58 58.5697C1029.97 59.1052 1028.5 59.9084 1027.16 60.9794C1025.86 62.0058 1024.75 63.2552 1023.81 64.7279C1022.87 66.2005 1022.16 67.8739 1021.67 69.7481H1051.93Z" fill="#5A6C84"/>
<path d="M125.143 0.179688L74.454 6.50139L0 84.7696L125.143 0.179688Z" fill="url(#paint0_linear_2_1396)"/>
<path d="M125.143 17.668L74.454 23.9897L0 102.258L125.143 17.668Z" fill="#495FAA"/>
<path d="M83.507 123.58L74.6927 23.9782L125.493 17.668L175.239 61.5394L83.507 123.58Z" fill="#FFCC00"/>
<path d="M208.622 21.5723L157.933 27.894L83.4791 106.162L208.622 21.5723Z" fill="url(#paint1_linear_2_1396)"/>
<path d="M208.622 38.9902L157.933 45.3171L83.4791 123.65L208.622 38.9902Z" fill="#68BD44"/>
<path d="M166.917 144.832L158.518 45.3047L209.065 38.9902L299.06 108.9L166.917 144.832Z" fill="#18A149"/>
<defs>
<linearGradient id="paint0_linear_2_1396" x1="62.5715" y1="0.179688" x2="62.5715" y2="84.7696" gradientUnits="userSpaceOnUse">
<stop stop-color="#4E5C6E"/>
<stop offset="1" stop-color="#4E5C6E" stop-opacity="0"/>
</linearGradient>
<linearGradient id="paint1_linear_2_1396" x1="146.051" y1="21.5723" x2="146.051" y2="106.162" gradientUnits="userSpaceOnUse">
<stop stop-color="#4E5C6E"/>
<stop offset="1" stop-color="#4E5C6E" stop-opacity="0"/>
</linearGradient>
</defs>
</svg>
