<svg
    width="22"
    height="19"
    viewBox="0 0 22 19"
    fill="none"
    xmlns="http://www.w3.org/2000/svg"
>
    <path
        d="M14.5104 0.15625C18.5674 0.15625 21.1111 2.38434 21.1111 5.9804V8.14295L21.1037 8.23966C21.0503 8.58751 20.7123 8.85561 20.3034 8.85561H20.2941L20.1666 8.8466C19.999 8.82271 19.8431 8.75206 19.7229 8.64352C19.5727 8.50784 19.4908 8.32442 19.4958 8.13476V5.9804C19.4958 3.14614 17.7226 1.58157 14.5104 1.58157H6.6007C3.37926 1.58157 1.61536 3.14614 1.61536 5.9804V12.9677C1.61536 15.802 3.38855 17.3584 6.6007 17.3584H14.5104C17.7318 17.3584 19.4958 15.7938 19.4958 12.9677C19.4958 12.5742 19.8574 12.2551 20.3034 12.2551C20.7495 12.2551 21.1111 12.5742 21.1111 12.9677C21.1111 16.5556 18.5859 18.7837 14.5197 18.7837H6.6007C2.52516 18.7837 0 16.5556 0 12.9677V5.9804C0 2.38434 2.52516 0.15625 6.6007 0.15625H14.5104ZM6.07153 7.19274C6.28579 7.19915 6.48837 7.28045 6.63464 7.41873C6.78091 7.55701 6.85888 7.74094 6.85136 7.92998V13.8852C6.83598 14.2788 6.4619 14.5868 6.01583 14.5733C5.56976 14.5597 5.22062 14.2296 5.236 13.836V7.87263L5.25039 7.76119C5.28278 7.61511 5.36707 7.48077 5.49268 7.37856C5.64969 7.2508 5.85818 7.18387 6.07153 7.19274ZM10.5927 4.39944C11.0388 4.39944 11.4004 4.71851 11.4004 5.1121V13.8442C11.4004 14.2378 11.0388 14.5569 10.5927 14.5569C10.1466 14.5569 9.78501 14.2378 9.78501 13.8442V5.1121C9.78501 4.71851 10.1466 4.39944 10.5927 4.39944ZM15.0674 10.3383C15.5135 10.3383 15.8751 10.6573 15.8751 11.0509V13.836C15.8751 14.2296 15.5135 14.5487 15.0674 14.5487C14.6214 14.5487 14.2597 14.2296 14.2597 13.836V11.0509C14.2597 10.6573 14.6214 10.3383 15.0674 10.3383Z"
        fill="#6C7894"
    />
</svg>
 