<svg
    width="18"
    height="21"
    viewBox="0 0 18 21"
    fill="none"
    xmlns="http://www.w3.org/2000/svg"
>
    <path
        d="M17.9965 16.7599C17.9965 19.9843 12.9237 20.3578 9.10764 20.3578C8.72301 20.3578 8.34398 20.3529 7.97165 20.3431C7.52888 20.3333 7.18004 20.0088 7.19345 19.6196C7.20575 19.2314 7.58814 18.9393 8.01749 18.9363C8.37528 18.9451 8.73867 18.9491 9.10764 18.9491C13.9401 18.9491 16.3909 18.2128 16.3909 16.7599C16.3909 15.2933 13.9401 14.5492 9.10764 14.5492C4.27521 14.5492 1.82434 15.2864 1.82434 16.7403C1.82434 17.2158 2.01665 17.905 3.68598 18.401C4.10638 18.5255 4.33112 18.9245 4.18912 19.2922C4.046 19.6598 3.59206 19.8608 3.17053 19.7333C0.730839 19.0089 0.21875 17.7059 0.21875 16.7403C0.21875 13.5807 5.08663 13.1578 8.87249 13.1418L9.53081 13.1421C12.0556 13.1534 17.9965 13.3501 17.9965 16.7599ZM9.10764 0.75C12.4083 0.75 15.0928 3.10484 15.0928 5.99889C15.0928 8.89195 12.4083 11.2468 9.10764 11.2468C5.80701 11.2468 3.12134 8.89195 3.12134 5.99889C3.12134 3.10484 5.80701 0.75 9.10764 0.75ZM9.10764 2.15879C6.69254 2.15879 4.72804 3.88129 4.72804 5.99889C4.72804 8.1155 6.69254 9.83801 9.10764 9.83801C11.5227 9.83801 13.4872 8.1155 13.4872 5.99889C13.4872 3.88129 11.5227 2.15879 9.10764 2.15879Z"
        fill="#6C7894"
    />
</svg>
 