<svg
    width="23"
    height="18"
    viewBox="0 0 23 18"
    fill="none"
    xmlns="http://www.w3.org/2000/svg"
>
    <path
        d="M15.7747 0.21875C19.3311 0.228344 22.2114 2.78856 22.2222 5.94968V7.38241L22.215 7.47724C22.163 7.81837 21.834 8.0813 21.4359 8.0813L21.4261 8.06383L21.3024 8.05512C21.1397 8.03208 20.9881 7.96398 20.8701 7.85913C20.7227 7.72806 20.6398 7.55029 20.6398 7.36493V5.94968C20.6132 3.57125 18.4505 1.64894 15.7747 1.62527H6.44749C3.77167 1.64894 1.60901 3.57125 1.58239 5.94968V12.1349C1.60901 14.5133 3.77167 16.4356 6.44749 16.4593H15.7747C18.4505 16.4356 20.6132 14.5133 20.6398 12.1349C20.6848 11.7767 21.0255 11.5058 21.431 11.5058C21.8365 11.5058 22.1772 11.7767 22.2222 12.1349C22.2114 15.296 19.3311 17.8562 15.7747 17.8658H6.44749C2.88888 17.861 0.00541234 15.298 0 12.1349V5.94968C0 2.78457 2.88664 0.21875 6.44749 0.21875H15.7747ZM4.77159 5.50005C4.97856 5.48034 5.18576 5.53532 5.3467 5.65265L9.96609 8.9025C10.5431 9.30492 11.3548 9.30492 11.9318 8.9025L16.502 5.65265H16.5119L16.6082 5.59416C16.9403 5.42276 17.3717 5.48601 17.6225 5.75748C17.7539 5.90306 17.8144 6.08933 17.7904 6.27477C17.7664 6.46022 17.6599 6.62942 17.4947 6.74467L12.9245 10.0033C11.7624 10.8345 10.106 10.8345 8.94393 10.0033L4.36385 6.74467L4.27928 6.67322C4.02101 6.42066 3.99998 6.03247 4.24591 5.75748C4.37523 5.61251 4.56463 5.51976 4.77159 5.50005Z"
        fill="#6C7894"
    />
</svg>
 