<svg width="92" height="74" viewBox="0 0 92 74" fill="none" xmlns="http://www.w3.org/2000/svg">
<ellipse cx="59.4621" cy="12.4177" rx="9.4826" ry="12.4177" fill="white"/>
<path d="M23.3477 48.7679C23.3477 33.7885 37.3309 22.7351 51.9056 26.1934L60.3748 28.2031C69.9034 30.4641 76.6308 38.9747 76.6308 48.7679H23.3477Z" fill="url(#paint0_linear_0_1)"/>
<ellipse cx="16.6306" cy="48.1639" rx="4.3669" ry="5.71857" fill="white"/>
<path d="M0 64.9036C0 58.0053 6.43954 52.915 13.1514 54.5076L17.0516 55.4331C21.4397 56.4744 24.5378 60.3936 24.5378 64.9036H0Z" fill="url(#paint1_linear_0_1)"/>
<ellipse cx="52.2956" cy="56.4608" rx="4.3669" ry="5.71857" fill="white"/>
<path d="M35.665 73.2004C35.665 66.3022 42.1046 61.2119 48.8165 62.8045L52.7167 63.73C57.1048 64.7712 60.2029 68.6905 60.2029 73.2004H35.665Z" fill="url(#paint2_linear_0_1)"/>
<ellipse cx="84.0886" cy="50.242" rx="4.3669" ry="5.71857" fill="white"/>
<path d="M67.458 66.9817C67.458 60.0834 73.8975 54.9931 80.6094 56.5858L84.5096 57.5112C88.8977 58.5525 91.9959 62.4718 91.9959 66.9817H67.458Z" fill="url(#paint3_linear_0_1)"/>
<defs>
<linearGradient id="paint0_linear_0_1" x1="49.9892" y1="19.417" x2="49.9892" y2="48.7679" gradientUnits="userSpaceOnUse">
<stop stop-color="white"/>
<stop offset="1" stop-color="white" stop-opacity="0"/>
</linearGradient>
<linearGradient id="paint1_linear_0_1" x1="12.2689" y1="51.387" x2="12.2689" y2="64.9036" gradientUnits="userSpaceOnUse">
<stop stop-color="white"/>
<stop offset="1" stop-color="white" stop-opacity="0"/>
</linearGradient>
<linearGradient id="paint2_linear_0_1" x1="47.934" y1="59.6838" x2="47.934" y2="73.2004" gradientUnits="userSpaceOnUse">
<stop stop-color="white"/>
<stop offset="1" stop-color="white" stop-opacity="0"/>
</linearGradient>
<linearGradient id="paint3_linear_0_1" x1="79.7269" y1="53.4651" x2="79.7269" y2="66.9817" gradientUnits="userSpaceOnUse">
<stop stop-color="white"/>
<stop offset="1" stop-color="white" stop-opacity="0"/>
</linearGradient>
</defs>
</svg>
