<svg width="130" height="64" viewBox="0 0 130 64" fill="none" xmlns="http://www.w3.org/2000/svg">
<path d="M68.3462 27.2184H102.287L106.182 33.4002L60 35.1589L68.3462 27.2184Z" fill="url(#paint0_linear_0_1)"/>
<path d="M79.5 38.6102L120.108 37.805V60.4038L79.5 63.5171V38.6102Z" fill="url(#paint1_linear_0_1)"/>
<path d="M86.2744 42.9975L93.8387 42.7201V50.982L86.2744 51.4168V42.9975Z" fill="#146657"/>
<path d="M105.383 42.2409L112.947 41.9635V50.2254L105.383 50.6603V42.2409Z" fill="#146657"/>
<path d="M86.2744 42.9733L93.0425 42.7201V50.2636L86.2744 50.6606V42.9733Z" fill="#218976"/>
<path d="M105.383 42.2168L112.549 41.9635V49.507L105.383 49.904V42.2168Z" fill="#218976"/>
<path d="M68.3643 27.2184H102.594L122.907 38.8708L81.4388 40.4525L68.3643 27.2184Z" fill="#65D9BD"/>
<path d="M70.7441 26.0835H104.724L124.889 37.7359L83.7232 39.3177L70.7441 26.0835Z" fill="url(#paint2_linear_0_1)"/>
<path d="M71.5459 24.5704H105.775L126.089 36.2228L84.6204 37.8045L71.5459 24.5704Z" fill="url(#paint3_linear_0_1)"/>
<path d="M93.3173 29.7405L115.942 10.1803L129.915 11.2618L97.2083 31.2248L93.3173 29.7405Z" fill="url(#paint4_linear_0_1)"/>
<ellipse cx="32.7192" cy="9.87449" rx="7.54051" ry="9.87449" fill="#65D9BD"/>
<path d="M4 38.7791C4 26.8675 15.1194 18.0779 26.7091 20.828L33.4438 22.426C41.0209 24.224 46.3705 30.9915 46.3705 38.7791H4Z" fill="url(#paint5_linear_0_1)"/>
<path d="M1 45C0.447716 45 0 45.4477 0 46C0 46.5523 0.447716 47 1 47V45ZM56 46L46 40.2265V51.7735L56 46ZM1 47H47V45H1V47Z" fill="#65D9BD"/>
<path d="M93.8889 0H79.1111C77.9394 0 77 0.95 77 2.11111V16.8889C77 18.05 77.9394 19 79.1111 19H93.8889C95.0606 19 96 18.05 96 16.8889V2.11111C96 0.95 95.0606 0 93.8889 0ZM84.3889 14.7778L79.1111 9.5L80.5994 8.01167L84.3889 11.7906L92.4006 3.77889L93.8889 5.27778L84.3889 14.7778Z" fill="url(#paint6_linear_0_1)"/>
<defs>
<linearGradient id="paint0_linear_0_1" x1="83.091" y1="27.2184" x2="83.091" y2="35.1589" gradientUnits="userSpaceOnUse">
<stop/>
<stop offset="1" stop-color="#317565" stop-opacity="0"/>
</linearGradient>
<linearGradient id="paint1_linear_0_1" x1="99.8042" y1="37.3219" x2="99.8042" y2="63.5171" gradientUnits="userSpaceOnUse">
<stop stop-color="#17342F"/>
<stop offset="1" stop-color="white" stop-opacity="0.03"/>
</linearGradient>
<linearGradient id="paint2_linear_0_1" x1="97.8164" y1="26.0835" x2="97.8164" y2="39.3177" gradientUnits="userSpaceOnUse">
<stop stop-color="#76B3FB"/>
<stop offset="0.333333" stop-color="#719FD4" stop-opacity="0.744792"/>
<stop offset="0.9999" stop-color="#6D8DB1" stop-opacity="0.515016"/>
<stop offset="1" stop-color="#636464" stop-opacity="0"/>
</linearGradient>
<linearGradient id="paint3_linear_0_1" x1="98.8172" y1="24.5704" x2="98.8172" y2="37.8045" gradientUnits="userSpaceOnUse">
<stop stop-color="#E1E1E1"/>
<stop offset="0.333333" stop-color="white" stop-opacity="0.744792"/>
<stop offset="0.9999" stop-color="#6D8DB1" stop-opacity="0.515016"/>
<stop offset="1" stop-color="#636464" stop-opacity="0"/>
</linearGradient>
<linearGradient id="paint4_linear_0_1" x1="111.573" y1="10.1456" x2="111.404" y2="31.3375" gradientUnits="userSpaceOnUse">
<stop stop-color="#FBED76"/>
<stop offset="1" stop-color="#FBED76" stop-opacity="0"/>
</linearGradient>
<linearGradient id="paint5_linear_0_1" x1="25.1853" y1="15.4394" x2="25.1853" y2="38.7791" gradientUnits="userSpaceOnUse">
<stop stop-color="#65D9BD"/>
<stop offset="1" stop-color="#65D9BD" stop-opacity="0"/>
</linearGradient>
<linearGradient id="paint6_linear_0_1" x1="86.5" y1="0" x2="86.5" y2="28.0416" gradientUnits="userSpaceOnUse">
<stop stop-color="#65D9BD"/>
<stop offset="1" stop-color="#65D9BD" stop-opacity="0"/>
</linearGradient>
</defs>
</svg>
