<svg width="130" height="64" viewBox="0 0 130 64" fill="none" xmlns="http://www.w3.org/2000/svg">
<path d="M68.3462 27.2183H102.287L106.182 33.4001L60 35.1588L68.3462 27.2183Z" fill="url(#paint0_linear_0_1)"/>
<path d="M79.5 38.6101L120.108 37.8049V60.4037L79.5 63.517V38.6101Z" fill="url(#paint1_linear_0_1)"/>
<path d="M86.2734 42.9973L93.8377 42.72V50.9819L86.2734 51.4167V42.9973Z" fill="#146657"/>
<path d="M105.383 42.241L112.947 41.9636V50.2255L105.383 50.6604V42.241Z" fill="#146657"/>
<path d="M86.2734 42.9732L93.0415 42.72V50.2634L86.2734 50.6605V42.9732Z" fill="#218976"/>
<path d="M105.383 42.2169L112.549 41.9636V49.5071L105.383 49.9041V42.2169Z" fill="#218976"/>
<path d="M68.3643 27.2183H102.594L122.907 38.8707L81.4388 40.4524L68.3643 27.2183Z" fill="#65D9BD"/>
<path d="M70.7441 26.0835H104.724L124.889 37.7359L83.7232 39.3177L70.7441 26.0835Z" fill="url(#paint2_linear_0_1)"/>
<path d="M71.5459 24.5703H105.775L126.089 36.2227L84.6204 37.8045L71.5459 24.5703Z" fill="url(#paint3_linear_0_1)"/>
<path d="M93.3173 29.7405L115.942 10.1803L129.915 11.2618L97.2083 31.2248L93.3173 29.7405Z" fill="url(#paint4_linear_0_1)"/>
<ellipse cx="32.7192" cy="9.87449" rx="7.54051" ry="9.87449" fill="white"/>
<path d="M4 38.7791C4 26.8676 15.1194 18.078 26.7091 20.8281L33.4438 22.4261C41.0209 24.2241 46.3705 30.9916 46.3705 38.7791H4Z" fill="url(#paint5_linear_0_1)"/>
<path d="M1 45C0.447716 45 0 45.4477 0 46C0 46.5523 0.447716 47 1 47V45ZM56 46L46 40.2265V51.7735L56 46ZM1 47H47V45H1V47Z" fill="white"/>
<path d="M92.7275 0L96.0003 3.27271L79.2731 19.9999L76.0003 16.7272L92.7275 0Z" fill="#FF5E51"/>
<path d="M96 16.7273L92.7273 20L76.0001 3.27281L79.2728 0.000101114L96 16.7273Z" fill="#FF5E51"/>
<defs>
<linearGradient id="paint0_linear_0_1" x1="83.091" y1="27.2183" x2="83.091" y2="35.1588" gradientUnits="userSpaceOnUse">
<stop/>
<stop offset="1" stop-color="#317565" stop-opacity="0"/>
</linearGradient>
<linearGradient id="paint1_linear_0_1" x1="99.8042" y1="37.3218" x2="99.8042" y2="63.517" gradientUnits="userSpaceOnUse">
<stop stop-color="#17342F"/>
<stop offset="1" stop-color="white" stop-opacity="0.03"/>
</linearGradient>
<linearGradient id="paint2_linear_0_1" x1="97.8164" y1="26.0835" x2="97.8164" y2="39.3177" gradientUnits="userSpaceOnUse">
<stop stop-color="#76B3FB"/>
<stop offset="0.333333" stop-color="#719FD4" stop-opacity="0.744792"/>
<stop offset="0.9999" stop-color="#6D8DB1" stop-opacity="0.515016"/>
<stop offset="1" stop-color="#636464" stop-opacity="0"/>
</linearGradient>
<linearGradient id="paint3_linear_0_1" x1="98.8172" y1="24.5703" x2="98.8172" y2="37.8045" gradientUnits="userSpaceOnUse">
<stop stop-color="#E1E1E1"/>
<stop offset="0.333333" stop-color="white" stop-opacity="0.744792"/>
<stop offset="0.9999" stop-color="#6D8DB1" stop-opacity="0.515016"/>
<stop offset="1" stop-color="#636464" stop-opacity="0"/>
</linearGradient>
<linearGradient id="paint4_linear_0_1" x1="111.573" y1="10.1456" x2="111.404" y2="31.3375" gradientUnits="userSpaceOnUse">
<stop stop-color="#FBED76"/>
<stop offset="1" stop-color="#FBED76" stop-opacity="0"/>
</linearGradient>
<linearGradient id="paint5_linear_0_1" x1="25.1853" y1="15.4395" x2="25.1853" y2="38.7791" gradientUnits="userSpaceOnUse">
<stop stop-color="white"/>
<stop offset="1" stop-color="white" stop-opacity="0"/>
</linearGradient>
</defs>
</svg>
