<svg width="130" height="64" viewBox="0 0 130 64" fill="none" xmlns="http://www.w3.org/2000/svg">
<path d="M81.9609 13.4986V13.1847C81.9671 12.1075 82.0625 11.2488 82.2472 10.6087C82.438 9.96851 82.715 9.45147 83.0781 9.05753C83.4413 8.66359 83.8783 8.30658 84.3892 7.98651C84.7708 7.74029 85.1125 7.48485 85.4141 7.22017C85.7157 6.95549 85.9557 6.66312 86.1342 6.34304C86.3127 6.01681 86.402 5.65365 86.402 5.25355C86.402 4.82884 86.3004 4.45644 86.0973 4.13636C85.8942 3.81629 85.6203 3.57008 85.2756 3.39773C84.937 3.22538 84.5616 3.1392 84.1491 3.1392C83.7491 3.1392 83.3705 3.22846 83.0135 3.40696C82.6565 3.57931 82.3641 3.83783 82.1364 4.18253C81.9086 4.52107 81.7855 4.94271 81.767 5.44744H78C78.0308 4.21638 78.3262 3.20076 78.8864 2.40057C79.4465 1.59422 80.1882 0.994082 81.1115 0.600142C82.0348 0.200047 83.0535 0 84.1676 0C85.3925 0 86.4759 0.203125 87.4176 0.609375C88.3594 1.00947 89.098 1.59115 89.6335 2.3544C90.169 3.11766 90.4368 4.03788 90.4368 5.11506C90.4368 5.83523 90.3168 6.47538 90.0767 7.03551C89.8428 7.58949 89.5135 8.08191 89.0888 8.51278C88.6641 8.9375 88.1624 9.32221 87.5838 9.6669C87.0975 9.9562 86.6974 10.2578 86.3835 10.5717C86.0758 10.8857 85.8449 11.2488 85.6911 11.6612C85.5433 12.0736 85.4664 12.5814 85.4602 13.1847V13.4986H81.9609ZM83.7891 19.4077C83.1735 19.4077 82.6473 19.1922 82.2102 18.7614C81.7794 18.3243 81.567 17.8011 81.5732 17.1918C81.567 16.5885 81.7794 16.0715 82.2102 15.6406C82.6473 15.2098 83.1735 14.9943 83.7891 14.9943C84.3738 14.9943 84.8878 15.2098 85.331 15.6406C85.7741 16.0715 85.9988 16.5885 86.005 17.1918C85.9988 17.598 85.8911 17.9704 85.6818 18.3089C85.4787 18.6413 85.2109 18.9091 84.8786 19.1122C84.5462 19.3092 84.183 19.4077 83.7891 19.4077Z" fill="url(#paint0_linear_0_1)"/>
<path d="M68.3462 27.2183H102.287L106.182 33.4001L60 35.1588L68.3462 27.2183Z" fill="url(#paint1_linear_0_1)"/>
<path d="M79.5 38.6101L120.108 37.8049V60.4037L79.5 63.517V38.6101Z" fill="url(#paint2_linear_0_1)"/>
<path d="M86.2734 42.9973L93.8377 42.72V50.9819L86.2734 51.4167V42.9973Z" fill="#146657"/>
<path d="M105.383 42.241L112.947 41.9636V50.2255L105.383 50.6604V42.241Z" fill="#146657"/>
<path d="M86.2734 42.9732L93.0415 42.72V50.2634L86.2734 50.6605V42.9732Z" fill="#218976"/>
<path d="M105.383 42.2169L112.549 41.9636V49.5071L105.383 49.9041V42.2169Z" fill="#218976"/>
<path d="M68.3643 27.2183H102.594L122.907 38.8707L81.4388 40.4524L68.3643 27.2183Z" fill="#65D9BD"/>
<path d="M70.7441 26.0835H104.724L124.889 37.7359L83.7232 39.3177L70.7441 26.0835Z" fill="url(#paint3_linear_0_1)"/>
<path d="M71.5459 24.5703H105.775L126.089 36.2227L84.6204 37.8045L71.5459 24.5703Z" fill="url(#paint4_linear_0_1)"/>
<path d="M93.3173 29.7405L115.942 10.1803L129.915 11.2618L97.2083 31.2248L93.3173 29.7405Z" fill="url(#paint5_linear_0_1)"/>
<ellipse cx="32.7192" cy="9.87449" rx="7.54051" ry="9.87449" fill="white"/>
<path d="M4 38.7791C4 26.8676 15.1194 18.078 26.7091 20.8281L33.4438 22.4261C41.0209 24.2241 46.3705 30.9916 46.3705 38.7791H4Z" fill="url(#paint6_linear_0_1)"/>
<path d="M1 45C0.447716 45 0 45.4477 0 46C0 46.5523 0.447716 47 1 47V45ZM56 46L46 40.2265V51.7735L56 46ZM1 47H47V45H1V47Z" fill="white"/>
<defs>
<linearGradient id="paint0_linear_0_1" x1="84.2184" y1="0" x2="84.2184" y2="26.168" gradientUnits="userSpaceOnUse">
<stop stop-color="white"/>
<stop offset="1" stop-color="white" stop-opacity="0"/>
</linearGradient>
<linearGradient id="paint1_linear_0_1" x1="83.091" y1="27.2183" x2="83.091" y2="35.1588" gradientUnits="userSpaceOnUse">
<stop/>
<stop offset="1" stop-color="#317565" stop-opacity="0"/>
</linearGradient>
<linearGradient id="paint2_linear_0_1" x1="99.8042" y1="37.3218" x2="99.8042" y2="63.517" gradientUnits="userSpaceOnUse">
<stop stop-color="#17342F"/>
<stop offset="1" stop-color="white" stop-opacity="0.03"/>
</linearGradient>
<linearGradient id="paint3_linear_0_1" x1="97.8164" y1="26.0835" x2="97.8164" y2="39.3177" gradientUnits="userSpaceOnUse">
<stop stop-color="#76B3FB"/>
<stop offset="0.333333" stop-color="#719FD4" stop-opacity="0.744792"/>
<stop offset="0.9999" stop-color="#6D8DB1" stop-opacity="0.515016"/>
<stop offset="1" stop-color="#636464" stop-opacity="0"/>
</linearGradient>
<linearGradient id="paint4_linear_0_1" x1="98.8172" y1="24.5703" x2="98.8172" y2="37.8045" gradientUnits="userSpaceOnUse">
<stop stop-color="#E1E1E1"/>
<stop offset="0.333333" stop-color="white" stop-opacity="0.744792"/>
<stop offset="0.9999" stop-color="#6D8DB1" stop-opacity="0.515016"/>
<stop offset="1" stop-color="#636464" stop-opacity="0"/>
</linearGradient>
<linearGradient id="paint5_linear_0_1" x1="111.573" y1="10.1456" x2="111.404" y2="31.3375" gradientUnits="userSpaceOnUse">
<stop stop-color="#FBED76"/>
<stop offset="1" stop-color="#FBED76" stop-opacity="0"/>
</linearGradient>
<linearGradient id="paint6_linear_0_1" x1="25.1853" y1="15.4395" x2="25.1853" y2="38.7791" gradientUnits="userSpaceOnUse">
<stop stop-color="white"/>
<stop offset="1" stop-color="white" stop-opacity="0"/>
</linearGradient>
</defs>
</svg>
